<?xml version="1.0" standalone="no"?>
<!DOCTYPE svg PUBLIC "-//W3C//DTD SVG 20010904//EN"
 "http://www.w3.org/TR/2001/REC-SVG-20010904/DTD/svg10.dtd">
<svg version="1.0" xmlns="http://www.w3.org/2000/svg"
 width="1024.000000pt" height="1024.000000pt" viewBox="0 0 1024.000000 1024.000000"
 preserveAspectRatio="xMidYMid meet">

<g transform="translate(0.000000,1024.000000) scale(0.100000,-0.100000)"
fill="#000000" stroke="none">
<path d="M4924 9100 c-773 -56 -1455 -446 -1873 -1071 -167 -249 -261 -456
-336 -743 -19 -71 -38 -132 -42 -136 -4 -4 -44 -19 -88 -34 -112 -38 -324
-143 -424 -211 -470 -315 -778 -815 -867 -1400 -19 -132 -22 -428 -5 -560 113
-859 717 -1554 1530 -1760 218 -55 248 -57 846 -65 l560 -6 88 -27 c148 -46
261 -111 367 -213 l45 -43 325 -1 c527 -1 746 19 1005 92 737 206 1214 738
1342 1494 26 156 26 589 0 719 -107 531 -462 858 -1028 945 -41 6 -235 14
-431 17 l-358 6 0 -777 0 -776 -315 0 -315 0 0 1080 0 1080 553 0 c549 0 713
-6 942 -36 456 -58 844 -206 1110 -424 270 -222 438 -494 502 -817 26 -133 24
-385 -5 -528 -48 -243 -149 -471 -294 -666 -71 -97 -208 -240 -296 -312 -55
-45 -71 -66 -118 -159 -100 -195 -251 -405 -410 -569 -35 -37 -64 -70 -64 -74
0 -16 343 4 445 25 288 61 599 210 829 399 83 69 235 222 301 304 185 229 346
562 413 852 69 297 73 614 12 915 -102 500 -383 945 -794 1254 -127 96 -388
243 -502 283 -26 9 -31 19 -53 104 -126 490 -405 930 -805 1265 -485 407
-1152 621 -1792 574z m793 -86 c-3 -3 -12 -4 -19 -1 -8 3 -5 6 6 6 11 1 17 -2
13 -5z m164 -52 c-7 -2 -18 1 -23 6 -8 8 -4 9 13 5 13 -4 18 -8 10 -11z m46
-8 c-3 -3 -12 -4 -19 -1 -8 3 -5 6 6 6 11 1 17 -2 13 -5z m69 -26 c4 -7 4 -10
-1 -6 -4 4 -14 3 -22 -4 -11 -8 -12 -7 -7 6 7 19 20 21 30 4z m79 -36 c-3 -3
-11 0 -18 7 -9 10 -8 11 6 5 10 -3 15 -9 12 -12z m69 -23 c37 -16 45 -23 36
-34 -8 -10 -8 -15 1 -21 8 -4 9 -3 5 5 -12 19 20 23 53 6 36 -18 40 -26 11
-20 -11 2 -20 0 -20 -4 0 -13 30 -35 37 -27 3 3 1 6 -5 6 -7 0 -12 4 -12 9 0
45 229 -87 435 -249 105 -82 315 -295 386 -390 215 -287 348 -555 435 -878 14
-53 31 -102 37 -109 7 -6 48 -28 92 -47 44 -19 79 -40 78 -45 -2 -6 3 -8 11
-5 23 9 207 -99 356 -209 91 -66 350 -317 350 -338 0 -6 -4 -8 -9 -5 -5 4 -11
3 -14 -1 -2 -5 -2 -3 -1 4 2 7 0 14 -4 17 -4 3 -9 -5 -9 -16 -2 -26 -7 -30
-27 -22 -9 3 -16 17 -16 30 0 13 -4 24 -10 24 -15 0 -12 16 6 34 14 15 14 16
0 16 -9 0 -16 -7 -16 -15 0 -8 -4 -15 -9 -15 -11 0 -25 30 -22 50 2 13 1 13
-8 0 -5 -8 -7 -19 -3 -25 4 -5 7 -17 7 -25 0 -8 6 -15 14 -15 18 0 26 -21 11
-30 -5 -3 -13 1 -16 9 -3 9 -10 13 -15 10 -5 -3 -6 -10 -3 -16 4 -6 2 -8 -4
-4 -5 3 -8 19 -6 35 3 16 0 32 -6 36 -6 3 -8 11 -5 16 9 14 -30 17 -58 4 -23
-10 -36 3 -17 15 13 8 12 10 -2 10 -26 0 -32 20 -12 35 18 13 18 14 -3 8 -16
-4 -22 -12 -21 -29 1 -13 6 -24 10 -24 4 0 8 -5 8 -11 0 -16 26 -39 35 -31 5
4 5 1 1 -5 -5 -9 -2 -11 9 -6 13 4 14 8 4 14 -15 9 -6 22 16 25 18 3 10 -53
-11 -75 -11 -12 -12 -11 -8 10 4 17 3 20 -4 11 -7 -11 -11 -10 -16 4 -6 16 -9
16 -17 4 -9 -13 -10 -13 -6 0 6 19 -18 54 -30 47 -5 -3 -15 -1 -23 5 -12 8
-12 9 3 4 12 -4 17 0 17 14 0 10 -5 22 -12 26 -7 5 -9 2 -5 -9 4 -11 2 -14 -8
-10 -8 3 -12 10 -9 17 3 6 -2 2 -11 -9 -14 -17 -17 -18 -25 -5 -5 8 -10 20
-10 25 0 6 -5 3 -10 -5 -7 -11 -10 -11 -10 -2 0 8 -5 10 -12 6 -8 -4 -10 -3
-5 2 5 5 13 10 18 10 5 1 11 2 14 3 11 2 -16 41 -29 41 -7 0 -18 10 -25 23
l-12 22 5 -22 c2 -13 0 -23 -5 -23 -5 0 -9 5 -9 11 0 5 -4 7 -10 4 -13 -8 -13
1 0 25 14 26 -7 37 -28 16 -11 -10 -12 -16 -4 -16 7 0 12 5 12 10 0 6 5 10 10
10 7 0 7 -6 0 -19 -20 -38 14 -62 73 -52 5 1 6 -3 3 -7 -3 -5 -16 -7 -29 -5
-18 4 -26 0 -30 -16 -2 -11 0 -22 7 -24 6 -2 7 -8 3 -13 -12 -12 -28 18 -21
40 5 15 3 18 -10 13 -9 -4 -17 -1 -18 6 0 7 -2 17 -2 22 -3 20 -40 74 -48 69
-4 -3 -8 0 -8 5 0 18 28 13 39 -6 10 -17 10 -17 11 -1 0 11 5 15 14 12 19 -7
31 15 17 29 -9 9 -11 8 -6 -4 5 -13 0 -16 -19 -16 -14 0 -26 4 -26 9 0 5 -9 6
-20 3 -12 -4 -26 -3 -33 2 -16 13 -59 14 -52 2 4 -5 2 -9 -4 -9 -5 0 -11 10
-13 22 -2 12 -10 23 -18 25 -12 4 -13 3 -1 -5 7 -5 11 -15 7 -20 -8 -13 -46
16 -46 35 0 7 -4 13 -10 13 -5 0 -7 -7 -4 -15 5 -11 2 -13 -10 -9 -11 4 -14
13 -10 30 6 25 -10 34 -19 12 -4 -8 -6 -7 -6 3 -1 9 6 20 15 23 13 5 14 9 4
21 -19 22 -30 8 -30 -37 0 -47 -9 -46 -15 0 -2 17 -6 36 -9 41 -4 5 -1 13 5
17 8 4 7 9 -2 15 -20 13 -37 11 -19 -2 11 -8 12 -12 3 -16 -7 -2 -13 -9 -13
-14 0 -6 6 -7 13 -3 9 5 9 4 0 -6 -9 -10 -10 -17 -1 -27 8 -10 8 -17 0 -25 -7
-7 -12 -20 -12 -30 0 -12 -5 -15 -16 -11 -11 4 -12 8 -4 13 7 5 9 13 5 20 -5
8 -4 11 3 6 15 -9 26 12 13 28 -6 7 -8 16 -4 19 3 4 1 7 -5 7 -11 0 -16 -13
-14 -31 1 -4 -7 -5 -18 -2 -11 3 -17 9 -14 14 3 5 9 7 14 4 14 -9 23 56 10 68
-10 9 -12 8 -7 -5 7 -21 -1 -48 -15 -48 -5 0 -6 9 -3 20 4 12 2 20 -6 20 -8 0
-9 3 0 13 8 10 7 14 -3 14 -10 0 -13 -9 -11 -29 4 -31 2 -33 -24 -16 -16 10
-17 14 -5 25 8 8 13 22 13 31 -1 15 -2 15 -6 0 -6 -24 -20 -23 -28 3 -5 14
-13 19 -26 16 -21 -6 -18 4 15 42 12 13 16 21 9 17 -7 -4 -13 2 -16 16 -3 15
-4 14 -2 -5 1 -19 -2 -26 -11 -23 -7 3 -15 -4 -17 -17 -3 -12 -4 -7 -4 11 1
19 5 36 9 38 11 7 10 24 -2 24 -6 0 -9 -5 -8 -11 2 -6 -4 -14 -12 -17 -8 -2
-12 -1 -8 3 4 4 0 14 -8 22 -8 8 -12 19 -9 24 4 5 1 9 -4 9 -14 0 -14 -27 -1
-35 6 -3 10 -15 10 -26 0 -12 4 -17 11 -14 6 4 5 -2 -3 -14 -7 -12 -17 -21
-22 -21 -4 0 -4 6 2 13 9 12 -1 57 -13 57 -4 0 -3 -4 0 -10 3 -5 1 -10 -4 -10
-6 0 -10 9 -8 19 1 11 -2 19 -8 18 -5 -1 -9 -6 -7 -10 1 -5 -3 -5 -9 -1 -6 3
-15 0 -20 -7 -4 -7 -11 -10 -15 -6 -4 4 0 13 10 20 15 11 16 17 5 40 -7 15
-18 27 -25 27 -7 0 -16 5 -20 12 -5 7 -2 9 9 5 9 -3 18 1 21 10 4 11 2 14 -9
9 -9 -3 -15 0 -15 10 0 11 6 14 23 9 17 -5 19 -4 7 4 -13 10 -13 12 0 21 13 9
13 10 0 10 -13 0 -13 1 0 10 11 7 12 10 2 10 -8 0 -16 -9 -19 -20 -3 -11 -8
-18 -12 -16 -4 3 -8 -5 -8 -16 -1 -12 -10 -28 -19 -37 -9 -9 -14 -10 -10 -3 9
15 1 15 -25 2 -13 -7 -19 -7 -19 0 0 9 15 13 45 13 19 0 14 49 -6 54 -16 4
-16 7 -4 19 16 16 29 19 20 4 -3 -5 -1 -10 4 -10 13 0 13 3 5 24 -5 12 -10 13
-25 5 -10 -5 -19 -6 -19 -2 0 4 -5 0 -11 -10 -5 -9 -8 -21 -5 -26 3 -4 -4 -17
-17 -27 -18 -16 -19 -16 -8 -2 11 15 11 19 -3 24 -9 3 -13 10 -10 15 3 5 0 9
-5 9 -6 0 -11 -6 -11 -12 0 -9 -3 -9 -9 1 -5 8 -7 20 -4 28 4 10 12 7 29 -12
16 -18 24 -21 24 -11 0 8 -5 16 -12 18 -6 2 -13 14 -15 27 -2 15 1 20 9 15 7
-4 8 -3 4 4 -4 7 -2 12 3 12 6 0 11 -6 12 -12 0 -10 2 -10 6 0 2 6 9 10 14 7
5 -4 6 1 2 10 -4 12 -8 13 -13 5 -5 -8 -10 -2 -14 14 -3 14 -11 26 -17 26 -8
0 -7 -5 1 -15 10 -12 10 -19 2 -27 -9 -9 -12 -7 -12 8 0 15 -2 16 -10 4 -5 -8
-5 -17 0 -20 5 -3 5 -12 0 -20 -7 -12 -12 -12 -21 -3 -9 9 -9 15 0 27 7 8 10
19 7 25 -3 5 -2 11 3 13 5 1 11 14 14 28 2 14 2 20 0 14 -2 -6 -15 -11 -28
-11 -15 0 -22 4 -19 12 3 7 1 16 -5 20 -7 3 -8 0 -5 -9 3 -9 2 -16 -2 -17 -5
0 -20 -2 -34 -5 -18 -3 -21 -2 -10 5 8 5 18 7 22 5 9 -6 5 32 -5 42 -4 4 1 13
10 19 15 11 14 12 -10 10 -18 -2 -27 1 -27 11 0 9 -4 13 -9 10 -4 -3 -13 6
-19 19 -10 21 -8 27 16 45 15 12 20 18 12 14 -27 -13 -50 -36 -44 -45 3 -5 0
-9 -5 -9 -6 0 -11 -8 -10 -17 0 -11 3 -13 6 -5 7 18 21 14 28 -9 4 -12 16 -30
26 -40 19 -19 17 -45 -2 -34 -5 4 -9 -2 -10 -12 0 -11 -3 -13 -6 -5 -2 6 -9
10 -14 6 -17 -10 -9 9 8 22 10 7 14 16 9 21 -5 4 -11 2 -13 -4 -7 -20 -19 -15
-20 9 -2 18 0 20 7 8 8 -13 10 -12 10 3 0 9 -7 17 -15 17 -8 0 -15 -7 -15 -15
0 -18 -12 -19 -28 -3 -9 9 -7 14 5 23 11 8 14 19 9 31 -6 16 -9 16 -17 4 -9
-12 -10 -12 -5 3 3 9 0 17 -5 17 -6 0 -9 9 -6 19 3 14 1 18 -9 14 -10 -4 -11
-10 -4 -23 15 -27 12 -37 -3 -15 -10 12 -16 14 -21 7 -9 -15 -26 -16 -26 -1 0
5 4 8 9 5 5 -3 16 5 25 19 20 30 21 41 3 26 -8 -6 -18 -7 -22 -3 -5 4 -5 -1
-2 -10 5 -14 2 -15 -24 -6 -16 5 -32 14 -35 20 -4 5 4 5 16 -2 27 -15 45 -1
35 28 -4 14 -12 19 -23 16 -12 -4 -13 -3 -4 3 13 10 6 106 -8 98 -5 -3 -6 -14
-3 -25 3 -11 0 -20 -6 -20 -6 0 -11 14 -11 30 0 17 4 30 9 30 5 0 11 6 14 13
3 8 -1 14 -9 14 -7 0 -11 -4 -9 -8 3 -4 -2 -9 -9 -12 -8 -3 -16 -1 -18 5 -3 8
-10 8 -25 0 -19 -10 -20 -9 -16 9 3 12 11 18 19 15 19 -7 45 4 38 16 -4 6 -10
5 -16 -3 -7 -10 -11 -11 -14 -3 -3 7 -14 9 -26 6 -14 -3 -19 -1 -14 6 3 6 2
13 -4 17 -5 3 -10 -2 -11 -12 0 -13 -2 -14 -6 -4 -3 8 5 22 18 33 l24 19 -30
-7 c-16 -4 -32 -10 -35 -13 -6 -8 -19 -7 -42 3 -10 5 -25 6 -33 2 -8 -3 -15
-1 -15 4 0 6 12 10 28 10 21 0 24 2 12 10 -13 8 -13 10 2 10 9 0 20 -4 23 -10
3 -5 1 -10 -5 -10 -6 0 -8 -5 -5 -10 9 -15 26 -1 24 18 -3 35 1 53 12 46 6 -3
8 -17 4 -31 -5 -22 -3 -24 17 -17 13 4 28 7 35 7 7 0 10 4 8 8 -6 8 -24 7 -45
-5 -8 -4 -4 3 10 15 15 13 18 20 8 16 -16 -6 -53 24 -42 35 3 3 0 9 -7 14 -8
4 -10 3 -5 -4 6 -10 -4 -16 -25 -14 -3 1 -6 -6 -6 -14 0 -8 6 -14 14 -14 7 0
13 -4 13 -9 0 -6 -8 -9 -17 -9 -10 0 -27 -3 -38 -6 -19 -7 -19 -7 -1 4 15 10
16 14 5 21 -10 6 -11 9 -1 9 6 0 12 5 12 11 0 5 -6 7 -12 3 -8 -5 -7 0 2 11
14 16 13 17 -8 11 -17 -6 -22 -3 -22 9 0 9 4 14 9 11 11 -7 9 13 -2 31 -4 7 0
16 9 21 9 5 12 12 7 15 -6 4 -19 0 -29 -8 -19 -15 -19 -15 1 -31 15 -13 16
-15 3 -11 -19 7 -33 -19 -15 -27 7 -2 4 -5 -7 -5 -14 -1 -16 3 -11 17 4 9 7
27 6 40 0 12 4 22 9 22 5 0 15 10 21 23 6 12 8 19 4 15 -4 -4 -14 0 -22 10
-11 15 -12 14 -3 -10 11 -32 3 -36 -16 -10 -11 15 -12 14 -10 -11 2 -17 -1
-26 -8 -24 -6 2 -11 14 -11 28 0 17 -10 29 -32 42 -33 18 -41 31 -24 42 5 3
16 -4 24 -16 10 -13 17 -16 22 -10 10 17 -5 53 -20 48 -7 -3 -18 0 -24 6 -9 9
-11 8 -5 -6 5 -13 2 -16 -9 -11 -14 5 -15 43 -1 66 3 4 1 8 -4 8 -6 0 -8 8 -5
19 3 10 0 22 -6 25 -7 5 -8 1 -5 -9 4 -9 -2 -23 -15 -34 -13 -12 -18 -22 -12
-26 7 -4 7 -10 -2 -19 -10 -11 -14 -10 -25 5 -7 11 -19 19 -27 19 -8 0 -17 5
-21 12 -4 6 -3 8 3 5 6 -4 13 3 16 14 3 12 10 18 16 14 15 -9 14 4 -2 19 -7 7
-19 11 -27 8 -11 -3 -10 -1 2 9 10 8 16 23 13 34 -2 11 -4 24 -4 28 -1 5 -6 5
-12 1 -8 -4 -7 -9 2 -15 11 -7 10 -9 -3 -9 -10 0 -18 5 -18 10 0 6 -5 10 -11
10 -5 0 -7 -4 -4 -10 3 -5 -3 -10 -13 -10 -24 0 -36 26 -21 48 9 14 10 15 6 1
-3 -9 -1 -22 5 -30 8 -11 9 -11 5 2 -3 9 -1 21 4 26 15 15 -18 25 -33 10 -17
-16 -48 -21 -48 -7 0 5 9 10 20 10 11 0 20 5 20 10 0 6 7 10 16 10 8 0 12 5 9
10 -4 6 -11 8 -16 5 -5 -4 -9 1 -9 9 0 14 -12 20 -32 17 -5 0 -8 4 -8 10 0 5
-4 7 -10 4 -5 -3 -10 1 -10 9 0 8 5 18 12 22 7 5 8 3 3 -6 -5 -9 -4 -11 3 -6
7 4 12 2 12 -5 0 -7 7 -4 15 7 13 16 16 17 25 4 6 -9 10 -10 10 -3 0 6 -4 15
-10 18 -5 3 -10 11 -10 17 0 6 7 5 18 -3 15 -13 16 -12 3 3 -14 19 -31 15 -31
-7 0 -8 -5 -17 -12 -21 -7 -5 -9 -2 -5 8 9 25 -3 29 -26 7 -23 -21 -33 -24
-42 -9 -3 6 -2 10 3 10 6 0 8 9 5 21 -4 15 0 22 17 26 16 4 18 8 8 14 -8 5
-21 1 -34 -12 -20 -19 -21 -19 -38 0 -17 19 -17 20 4 31 20 11 21 10 10 -10
-9 -18 -9 -21 1 -18 7 2 14 11 15 19 2 7 5 24 8 37 3 13 1 20 -5 17 -5 -4 -7
-11 -4 -16 4 -5 1 -9 -4 -9 -6 0 -11 7 -11 15 0 8 -7 15 -16 15 -8 0 -12 -4
-9 -10 3 -5 -1 -10 -9 -10 -9 0 -16 6 -17 13 0 6 -4 3 -9 -8 -6 -13 -9 -15 -9
-5 -1 22 15 44 23 32 10 -16 36 -3 29 14 -5 12 7 19 30 15 4 0 7 5 7 12 0 8 4
7 11 -3 8 -11 9 -9 3 10 -4 14 -7 33 -6 42 1 18 -18 20 -29 4 -4 -4 -10 -3
-13 3 -4 6 -2 11 4 11 6 0 8 5 5 10 -5 8 -12 7 -23 -2 -10 -7 -14 -8 -10 -4 4
5 3 15 -3 23 -15 18 -10 17 45 -8z m-57 -5 c-3 -3 -12 -4 -19 -1 -8 3 -5 6 6
6 11 1 17 -2 13 -5z m-4 -44 c3 -11 1 -18 -4 -14 -5 3 -9 0 -9 -5 0 -6 5 -11
11 -11 5 0 7 -6 4 -12 -4 -7 0 -5 8 5 10 12 17 14 22 8 3 -6 2 -11 -4 -11 -6
0 -8 -6 -5 -14 4 -10 -2 -14 -19 -12 -14 0 -23 4 -20 9 2 4 1 13 -3 19 -11 17
-12 48 -2 42 4 -3 8 0 8 5 0 18 7 12 13 -9z m49 -15 c5 -6 8 -5 8 3 0 7 5 10
11 6 8 -4 7 -9 -2 -14 -14 -9 -46 8 -54 29 -5 12 -3 12 12 0 10 -8 21 -18 25
-24z m-94 4 c3 -11 1 -11 -6 -1 -5 7 -17 10 -28 6 -16 -5 -16 -4 -4 5 18 13
32 10 38 -10z m-8 -23 c0 -3 -4 -8 -10 -11 -5 -3 -10 -1 -10 4 0 6 5 11 10 11
6 0 10 -2 10 -4z m-13 -43 c-4 -3 -2 -12 4 -20 7 -8 8 -13 1 -13 -12 0 -23 26
-15 34 4 3 9 6 11 6 3 0 2 -3 -1 -7z m37 -23 c-6 -6 -10 -2 -11 12 -2 16 1 18
10 9 7 -7 8 -14 1 -21z m46 -55 c0 -12 -19 -12 -23 0 -4 9 -1 12 9 8 7 -3 14
-7 14 -8z m30 -40 c11 -13 10 -14 -4 -9 -9 3 -16 10 -16 15 0 13 6 11 20 -6z
m120 -123 c0 -4 -12 -8 -27 -9 -26 -1 -26 0 -9 13 18 13 36 11 36 -4z m34
-104 c12 19 41 6 41 -19 1 -16 6 -24 18 -23 9 1 14 -2 11 -7 -10 -17 -24 -9
-44 24 -18 28 -26 30 -21 3 1 -5 -5 -4 -13 4 -9 7 -16 18 -16 24 0 6 4 5 9 -3
5 -8 11 -9 15 -3z m-994 -78 c460 -57 878 -284 1135 -615 103 -133 228 -336
215 -348 -3 -3 -115 16 -250 41 l-245 45 -776 4 c-771 4 -777 4 -840 -17 -158
-53 -274 -175 -323 -339 -14 -49 -16 -206 -16 -1576 l0 -1522 24 -26 c13 -14
39 -28 57 -32 19 -3 320 -4 669 -2 691 4 676 2 830 63 182 72 338 218 401 376
43 107 48 178 49 631 l0 427 33 0 c56 0 169 -29 227 -57 122 -60 226 -208 267
-382 26 -108 25 -411 -1 -531 -87 -406 -381 -716 -791 -835 -199 -57 -203 -58
-853 -62 -428 -3 -619 -1 -658 7 -157 33 -309 156 -381 309 l-37 79 -451 5
c-409 4 -458 6 -540 24 -248 57 -434 159 -605 332 -175 178 -282 379 -337 634
-23 104 -25 397 -4 502 79 398 346 740 701 896 152 68 260 91 453 96 l167 6 0
134 c0 165 13 293 46 443 150 677 712 1189 1410 1284 123 17 312 19 424 6z
m1155 -37 c-1 -21 2 -44 8 -51 7 -9 6 -16 -3 -25 -10 -10 -11 -9 -5 2 5 9 2
19 -9 27 -14 10 -15 17 -7 32 6 11 8 22 5 25 -6 5 3 27 10 27 2 0 3 -17 1 -37z
m75 -54 c0 -6 -4 -7 -10 -4 -5 3 -10 11 -10 16 0 6 5 7 10 4 6 -3 10 -11 10
-16z m-116 -24 c-4 -8 -8 -15 -10 -15 -2 0 -4 7 -4 15 0 8 4 15 10 15 5 0 7
-7 4 -15z m113 -72 c0 -21 -1 -28 -4 -15 -4 20 -7 21 -21 10 -9 -7 -14 -8 -10
-4 4 5 2 16 -5 25 -11 14 -10 14 6 2 10 -8 17 -9 17 -3 0 6 -4 14 -10 17 -18
11 -11 26 8 16 12 -6 18 -22 19 -48z m50 -108 c0 -8 -4 -12 -9 -9 -5 3 -6 10
-3 15 9 13 12 11 12 -6z m33 -79 c0 -2 -7 -7 -16 -10 -8 -3 -12 -2 -9 4 6 10
25 14 25 6z m110 -46 c0 -5 -5 -10 -11 -10 -5 0 -7 5 -4 10 3 6 8 10 11 10 2
0 4 -4 4 -10z m36 -32 c4 -7 4 -10 -1 -6 -4 4 -15 2 -24 -5 -14 -11 -14 -10
-2 6 16 20 18 21 27 5z m-9 -55 c-3 -10 -5 -4 -5 12 0 17 2 24 5 18 2 -7 2
-21 0 -30z m47 22 c-5 -11 -2 -13 10 -9 9 3 16 1 16 -6 0 -6 -4 -8 -10 -5 -22
14 -8 -15 16 -34 20 -15 22 -21 10 -21 -9 0 -19 0 -23 0 -5 0 -8 3 -8 8 -2 21
-18 52 -27 52 -6 0 -6 6 2 15 16 19 21 19 14 0z m-14 -40 c11 -13 10 -14 -4
-9 -9 3 -16 10 -16 15 0 13 6 11 20 -6z m-40 -15 c0 -5 -2 -10 -4 -10 -3 0 -8
5 -11 10 -3 6 -1 10 4 10 6 0 11 -4 11 -10z m109 -72 c1 -5 -3 -8 -9 -8 -5 0
-10 12 -9 28 0 24 1 25 9 7 5 -11 9 -23 9 -27z m-42 -22 c0 -8 -6 -12 -15 -9
-11 5 -11 7 0 14 7 5 13 9 14 9 0 0 1 -6 1 -14z m133 -97 c0 -10 -12 -11 -34
-3 -25 10 -19 22 9 16 14 -2 25 -8 25 -13z m57 -85 c-3 -3 -12 -4 -19 -1 -8 3
-5 6 6 6 11 1 17 -2 13 -5z m138 -36 c11 2 16 -1 10 -5 -6 -4 -15 -19 -21 -32
-9 -21 -11 -22 -17 -8 -4 10 -1 17 6 17 8 0 6 4 -3 10 -22 14 -33 12 -26 -6 3
-8 2 -13 -3 -9 -5 3 -12 -1 -15 -7 -3 -7 -3 -2 0 12 8 29 23 42 39 32 5 -4 19
-5 30 -4z m-65 -68 c0 -5 -7 -7 -15 -4 -8 4 -15 8 -15 10 0 2 7 4 15 4 8 0 15
-4 15 -10z m42 -22 c-7 -7 -12 -8 -12 -2 0 14 12 26 19 19 2 -3 -1 -11 -7 -17z
m21 -19 c-6 -6 -9 -19 -6 -28 4 -11 1 -10 -10 4 -13 17 -13 21 2 31 19 15 30
9 14 -7z m122 -58 c3 -6 -4 -15 -15 -21 -13 -7 -20 -7 -20 0 0 5 8 10 18 10
14 0 15 2 2 10 -9 6 -10 10 -3 10 6 0 14 -4 18 -9z m45 -125 c0 -3 -4 -8 -10
-11 -5 -3 -10 -1 -10 4 0 6 5 11 10 11 6 0 10 -2 10 -4z m33 -77 c4 -16 3 -18
-9 -8 -7 6 -11 15 -8 20 8 13 11 11 17 -12z m40 4 c-3 -6 -11 -9 -19 -6 -20 7
-17 19 5 19 11 0 17 -6 14 -13z m115 -104 c-1 -21 -4 -24 -13 -15 -10 8 -10
13 -1 19 6 5 2 7 -12 4 -18 -4 -21 -2 -13 7 19 23 40 15 39 -15z m-73 3 c-3
-3 -11 0 -18 7 -9 10 -8 11 6 5 10 -3 15 -9 12 -12z m269 -126 c-3 -8 -13 -17
-22 -21 -13 -5 -13 -2 3 15 21 24 26 25 19 6z m70 -41 c-4 -9 -16 -21 -28 -27
-19 -10 -18 -8 4 15 29 31 31 32 24 12z m95 -37 c6 -18 7 -28 2 -23 -10 12
-25 55 -18 55 3 0 10 -15 16 -32z m34 1 c3 -13 1 -19 -6 -16 -7 2 -12 8 -12
13 0 5 -4 15 -8 21 -5 9 -3 11 6 7 8 -3 17 -14 20 -25z m-59 -1 c1 -7 5 -18 9
-25 5 -8 1 -11 -12 -10 -14 1 -17 5 -12 17 5 8 6 22 3 30 -2 8 -2 12 2 8 4 -3
8 -12 10 -20z m-37 6 c-3 -3 -12 -4 -19 -1 -8 3 -5 6 6 6 11 1 17 -2 13 -5z
m-67 -34 c-6 -11 -13 -20 -16 -20 -2 0 0 9 6 20 6 11 13 20 16 20 2 0 0 -9 -6
-20z m70 10 c0 -5 -2 -10 -4 -10 -3 0 -8 5 -11 10 -3 6 -1 10 4 10 6 0 11 -4
11 -10z m134 -33 c3 -18 0 -27 -9 -27 -7 0 -16 -6 -18 -12 -4 -9 -6 -10 -6 -1
-1 6 6 18 14 26 12 12 12 16 1 20 -7 3 -19 0 -25 -6 -8 -8 -11 -6 -11 7 0 13
5 17 20 13 11 -3 20 0 20 6 0 18 9 3 14 -26z m-4 -68 c0 -5 5 -7 12 -3 7 4 8
3 4 -4 -10 -16 -23 -15 -30 3 -3 8 -1 15 4 15 6 0 10 -5 10 -11z m117 -41 c-3
-8 -6 -5 -6 6 -1 11 2 17 5 13 3 -3 4 -12 1 -19z m29 -11 c0 -13 -6 -24 -13
-24 -8 0 -9 6 -3 17 5 10 6 20 3 24 -3 3 -2 6 4 6 6 0 10 -10 9 -23z m-50 -2
c-3 -20 -16 -31 -16 -13 0 13 8 28 16 28 1 0 1 -7 0 -15z m87 -1 c-7 -3 -9
-13 -6 -22 4 -14 3 -14 -5 -2 -12 16 -7 30 11 29 9 0 9 -2 0 -5z m169 -60 c-8
-14 -9 -13 -9 10 0 18 3 24 9 18 7 -7 7 -16 0 -28z m-117 14 c5 4 5 1 1 -5
-10 -18 -23 -16 -30 3 -5 13 -4 14 7 6 8 -7 18 -8 22 -4z m89 -67 c3 -5 -1
-11 -9 -14 -9 -4 -12 -1 -8 9 6 16 10 17 17 5z m31 -1 c3 -5 1 -10 -4 -10 -6
0 -11 5 -11 10 0 6 2 10 4 10 3 0 8 -4 11 -10z m71 -5 c-3 -8 -1 -15 3 -15 14
0 20 -25 10 -41 -7 -12 -10 -12 -21 0 -8 9 -9 11 -1 7 6 -3 14 -2 18 4 3 6 -4
10 -17 10 -13 0 -30 5 -38 11 -12 8 -9 9 9 4 20 -6 23 -4 18 9 -4 10 -3 15 3
11 6 -3 10 -1 10 4 0 6 3 11 6 11 3 0 4 -7 0 -15z m162 -76 c33 -46 38 -57 19
-40 -15 14 -27 31 -27 38 0 8 -4 12 -9 8 -5 -3 -13 0 -16 5 -5 8 -14 5 -28 -7
-19 -15 -19 -14 1 9 l24 26 -21 7 c-12 3 -19 11 -15 16 11 18 26 4 72 -62z
m-68 37 c0 -2 -7 -7 -16 -10 -8 -3 -12 -2 -9 4 6 10 25 14 25 6z m65 -86 c3
-6 -1 -7 -9 -4 -18 7 -21 14 -7 14 6 0 13 -4 16 -10z m63 -45 c-3 -3 -9 2 -12
12 -6 14 -5 15 5 6 7 -7 10 -15 7 -18z m52 -75 c6 -11 8 -20 6 -20 -3 0 -10 9
-16 20 -6 11 -8 20 -6 20 3 0 10 -9 16 -20z m40 -70 c6 -11 8 -20 6 -20 -3 0
-10 9 -16 20 -6 11 -8 20 -6 20 3 0 10 -9 16 -20z"/>
<path d="M6200 8805 c0 -8 4 -15 8 -15 5 0 9 7 9 15 0 8 -4 15 -9 15 -4 0 -8
-7 -8 -15z"/>
<path d="M6140 8761 c0 -5 5 -13 10 -16 6 -3 10 -2 10 4 0 5 -4 13 -10 16 -5
3 -10 2 -10 -4z"/>
<path d="M6179 8747 c6 -8 8 -17 4 -21 -4 -4 0 -4 10 -1 14 6 14 9 2 21 -17
18 -31 18 -16 1z"/>
<path d="M6182 8693 c3 -19 28 -31 28 -13 0 6 -5 8 -12 4 -8 -5 -9 -2 -5 9 3
10 2 17 -4 17 -6 0 -9 -8 -7 -17z"/>
<path d="M6291 8691 c-10 -7 -7 -9 12 -8 14 1 23 5 20 10 -6 9 -15 9 -32 -2z"/>
<path d="M6290 8656 c0 -2 8 -10 18 -17 15 -13 16 -12 3 4 -13 16 -21 21 -21
13z"/>
<path d="M6187 8633 c-10 -9 -9 -23 1 -23 5 0 9 7 9 15 0 17 -1 18 -10 8z"/>
<path d="M6250 8560 c0 -5 5 -10 11 -10 5 0 7 5 4 10 -3 6 -8 10 -11 10 -2 0
-4 -4 -4 -10z"/>
<path d="M6330 8470 c-24 -15 -7 -18 20 -3 14 7 18 13 10 13 -8 0 -22 -4 -30
-10z"/>
<path d="M6383 8395 c-3 -9 -3 -18 -1 -21 3 -3 8 4 11 16 6 23 -1 27 -10 5z"/>
<path d="M6413 8398 c4 -11 1 -18 -6 -18 -8 0 -6 -4 3 -10 13 -8 12 -11 -5
-24 -11 -8 -23 -12 -27 -10 -15 9 -8 -14 10 -33 9 -10 13 -13 8 -6 -6 10 -2
19 13 29 17 12 21 23 17 46 -2 16 -8 33 -12 36 -4 4 -4 -1 -1 -10z"/>
<path d="M6484 8316 c1 -8 5 -18 8 -22 4 -3 5 1 4 10 -1 8 -5 18 -8 22 -4 3
-5 -1 -4 -10z"/>
<path d="M6536 8247 c3 -10 9 -15 12 -12 3 3 0 11 -7 18 -10 9 -11 8 -5 -6z"/>
<path d="M6578 8218 c5 -5 16 -8 23 -6 8 3 3 7 -10 11 -17 4 -21 3 -13 -5z"/>
<path d="M6620 8161 c0 -10 19 -25 25 -20 1 2 -3 10 -11 17 -8 7 -14 8 -14 3z"/>
<path d="M6685 8090 c3 -5 8 -10 11 -10 2 0 4 5 4 10 0 6 -5 10 -11 10 -5 0
-7 -4 -4 -10z"/>
<path d="M6630 8078 c0 -6 3 -9 6 -5 3 3 18 1 33 -4 21 -8 24 -8 14 2 -17 17
-53 22 -53 7z"/>
<path d="M6814 7931 c0 -11 4 -17 8 -15 4 3 8 -2 8 -10 0 -9 5 -16 10 -16 15
0 12 12 -8 38 -17 21 -18 22 -18 3z"/>
<path d="M6885 7830 c3 -5 8 -10 11 -10 2 0 4 5 4 10 0 6 -5 10 -11 10 -5 0
-7 -4 -4 -10z"/>
<path d="M6910 7800 c8 -5 20 -10 25 -10 6 0 3 5 -5 10 -8 5 -19 10 -25 10 -5
0 -3 -5 5 -10z"/>
<path d="M6864 7788 c-4 -7 -4 -10 1 -6 4 4 15 2 24 -5 14 -11 14 -10 2 6 -16
20 -18 21 -27 5z"/>
<path d="M6937 7773 c-13 -13 -17 -14 -17 -3 0 7 -3 11 -6 8 -3 -4 -1 -15 5
-27 7 -12 7 -22 2 -26 -5 -3 -12 4 -16 15 -4 11 -10 18 -15 15 -5 -3 -10 1
-13 7 -3 7 -4 3 -4 -9 1 -12 4 -20 8 -17 4 2 10 0 14 -6 3 -5 2 -10 -4 -10 -6
0 -8 -7 -5 -15 5 -12 10 -13 20 -4 8 6 14 8 14 5 0 -4 6 -1 14 6 9 9 11 17 4
25 -10 13 -2 36 11 29 4 -3 8 1 8 9 0 18 1 19 -20 -2z"/>
<path d="M6995 7710 c-3 -5 -1 -10 4 -10 6 0 11 5 11 10 0 6 -2 10 -4 10 -3 0
-8 -4 -11 -10z"/>
<path d="M6946 7701 c-3 -5 1 -14 9 -21 12 -10 15 -10 15 3 0 19 -16 31 -24
18z"/>
<path d="M7010 7681 c0 -6 -7 -11 -15 -11 -8 0 -15 -7 -15 -16 0 -13 -3 -14
-14 -5 -12 10 -13 8 -9 -9 8 -30 20 -33 27 -7 3 13 16 28 28 34 15 6 18 12 10
17 -7 4 -12 2 -12 -3z"/>
<path d="M7071 7634 c0 -11 3 -14 6 -6 3 7 2 16 -1 19 -3 4 -6 -2 -5 -13z"/>
<path d="M7036 7608 c3 -5 9 -7 12 -4 3 3 12 0 21 -6 13 -10 14 -10 4 2 -15
16 -46 23 -37 8z"/>
<path d="M7135 7550 c-3 -6 1 -7 9 -4 18 7 21 14 7 14 -6 0 -13 -4 -16 -10z"/>
<path d="M7131 7521 c-7 -5 -9 -11 -5 -14 5 -3 15 1 22 9 14 16 5 18 -17 5z"/>
<path d="M7240 7448 c0 -4 4 -8 9 -8 6 0 12 4 15 8 3 5 -1 9 -9 9 -8 0 -15 -4
-15 -9z"/>
<path d="M7220 7436 c0 -2 7 -9 15 -16 9 -7 15 -8 15 -2 0 5 -7 12 -15 16 -8
3 -15 4 -15 2z"/>
<path d="M7260 7399 c0 -5 5 -7 10 -4 6 3 10 8 10 11 0 2 -4 4 -10 4 -5 0 -10
-5 -10 -11z"/>
<path d="M7220 7380 c-9 -6 -10 -10 -3 -10 6 0 15 5 18 10 8 12 4 12 -15 0z"/>
<path d="M7430 7325 c0 -5 5 -17 10 -25 5 -8 10 -10 10 -5 0 6 -5 17 -10 25
-5 8 -10 11 -10 5z"/>
<path d="M7338 7283 c0 -5 -2 -15 -2 -23 -1 -8 -7 -14 -14 -12 -7 1 -12 -3
-12 -9 0 -6 7 -9 15 -5 9 3 25 -4 36 -15 17 -17 23 -18 33 -9 8 10 8 11 -1 6
-7 -4 -13 -2 -13 4 0 6 -10 15 -22 20 -13 5 -17 9 -10 9 6 1 12 6 12 12 0 5
-5 7 -12 3 -8 -5 -9 -2 -5 9 3 10 4 17 2 17 -3 0 -6 -3 -7 -7z"/>
<path d="M7376 7273 c-4 -9 -2 -21 4 -27 8 -8 9 -6 4 8 -5 13 -4 17 4 12 8 -5
10 -2 6 8 -8 20 -10 20 -18 -1z"/>
<path d="M7416 7262 c-3 -5 1 -9 9 -9 8 0 12 4 9 9 -3 4 -7 8 -9 8 -2 0 -6 -4
-9 -8z"/>
<path d="M7429 7231 c8 -5 10 -14 6 -22 -6 -11 -5 -11 5 -2 14 12 6 33 -13 33
-8 0 -7 -3 2 -9z"/>
<path d="M7330 7199 c0 -5 5 -7 10 -4 6 3 10 8 10 11 0 2 -4 4 -10 4 -5 0 -10
-5 -10 -11z"/>
<path d="M7515 7090 c3 -5 8 -10 11 -10 2 0 4 5 4 10 0 6 -5 10 -11 10 -5 0
-7 -4 -4 -10z"/>
<path d="M7620 7050 c0 -5 5 -10 11 -10 5 0 7 5 4 10 -3 6 -8 10 -11 10 -2 0
-4 -4 -4 -10z"/>
<path d="M7653 7040 c-1 -11 2 -22 8 -25 5 -4 8 3 6 14 -4 28 -12 34 -14 11z"/>
<path d="M7565 7040 c3 -5 8 -10 11 -10 2 0 4 5 4 10 0 6 -5 10 -11 10 -5 0
-7 -4 -4 -10z"/>
<path d="M7725 6980 c3 -5 8 -10 11 -10 2 0 4 5 4 10 0 6 -5 10 -11 10 -5 0
-7 -4 -4 -10z"/>
<path d="M7816 6965 c-11 -8 -15 -15 -9 -15 7 0 15 5 18 11 5 6 12 4 20 -8 13
-17 14 -16 8 5 -6 26 -11 27 -37 7z"/>
<path d="M7713 6928 c-2 -18 0 -20 7 -8 12 18 13 30 2 30 -4 0 -9 -10 -9 -22z"/>
<path d="M7773 6912 c0 -17 1 -20 4 -8 4 15 7 16 14 5 5 -8 9 -9 9 -3 0 6 -6
16 -13 22 -10 8 -13 5 -14 -16z"/>
<path d="M7833 6915 c0 -8 4 -12 9 -9 5 3 6 10 3 15 -9 13 -12 11 -12 -6z"/>
<path d="M7740 6911 c0 -5 5 -13 10 -16 6 -3 10 -2 10 4 0 5 -4 13 -10 16 -5
3 -10 2 -10 -4z"/>
<path d="M7797 6879 c7 -7 15 -10 18 -7 3 3 -2 9 -12 12 -14 6 -15 5 -6 -5z"/>
<path d="M7856 6861 c9 -9 34 -9 34 -1 0 5 -9 8 -20 7 -10 -1 -17 -3 -14 -6z"/>
<path d="M8085 6800 c3 -5 8 -10 11 -10 2 0 4 5 4 10 0 6 -5 10 -11 10 -5 0
-7 -4 -4 -10z"/>
<path d="M8040 6761 c0 -7 -5 -9 -12 -5 -7 5 -8 3 -3 -5 5 -9 10 -10 18 -2 6
6 8 14 4 18 -4 3 -7 1 -7 -6z"/>
<path d="M8061 6741 c-8 -5 -9 -11 -3 -15 5 -3 12 1 16 9 6 17 6 18 -13 6z"/>
<path d="M8065 6691 c2 -9 4 -20 4 -25 1 -15 15 3 18 23 1 10 -4 18 -11 18 -8
0 -12 -7 -11 -16z"/>
<path d="M8105 6690 c-3 -5 -1 -10 4 -10 6 0 11 5 11 10 0 6 -2 10 -4 10 -3 0
-8 -4 -11 -10z"/>
<path d="M8241 6684 c0 -11 3 -14 6 -6 3 7 2 16 -1 19 -3 4 -6 -2 -5 -13z"/>
<path d="M8350 6576 c0 -2 7 -9 15 -16 9 -7 15 -8 15 -2 0 5 -7 12 -15 16 -8
3 -15 4 -15 2z"/>
</g>
</svg>
