<?xml version="1.0" standalone="no"?>
<!DOCTYPE svg PUBLIC "-//W3C//DTD SVG 20010904//EN"
 "http://www.w3.org/TR/2001/REC-SVG-20010904/DTD/svg10.dtd">
<svg version="1.0" xmlns="http://www.w3.org/2000/svg"
 width="796.000000pt" height="680.000000pt" viewBox="0 0 796.000000 680.000000"
 preserveAspectRatio="xMidYMid meet">

<g transform="translate(0.000000,680.000000) scale(0.100000,-0.100000)"
fill="#000000" stroke="none">
<path d="M3735 6604 c-671 -70 -1268 -389 -1674 -894 -240 -298 -413 -641
-501 -996 -9 -39 -14 -43 -71 -64 -94 -34 -265 -122 -359 -186 -430 -289 -753
-747 -881 -1251 -47 -185 -63 -319 -63 -518 -1 -332 56 -586 195 -870 270
-555 786 -983 1354 -1124 223 -56 296 -62 760 -71 465 -8 473 -9 600 -69 86
-40 143 -80 228 -160 l70 -66 551 -3 c592 -4 719 2 922 43 475 95 926 401
1178 798 98 156 195 383 240 567 159 648 46 1215 -318 1585 -231 235 -531 379
-896 430 -83 11 -200 15 -465 15 l-355 0 0 -874 0 -875 -24 -27 c-30 -36 -91
-43 -394 -43 -170 -1 -224 2 -227 11 -7 24 -12 2284 -5 2304 7 19 22 19 646
18 582 -1 655 -3 820 -23 555 -64 983 -214 1306 -457 109 -81 277 -257 350
-365 236 -352 311 -764 212 -1168 -54 -219 -165 -419 -328 -590 -55 -58 -183
-163 -246 -203 -17 -10 -33 -38 -48 -84 -36 -105 -123 -279 -193 -384 -42 -64
-105 -138 -195 -227 -120 -120 -129 -131 -100 -128 17 2 83 6 147 9 572 25
1161 398 1514 961 415 661 400 1530 -39 2204 -240 368 -635 704 -971 826 -27
10 -53 21 -57 24 -4 4 -21 53 -38 109 -64 215 -159 431 -280 637 -124 209
-352 473 -540 624 -99 80 -190 145 -190 137 0 -2 29 -25 64 -50 456 -325 803
-842 955 -1422 10 -37 16 -43 59 -59 140 -53 343 -172 497 -293 82 -64 324
-307 363 -363 33 -50 29 -69 -15 -69 -16 0 -23 6 -23 20 0 13 -7 21 -20 22
-11 0 -25 1 -32 2 -6 1 -13 -5 -16 -13 -3 -10 1 -12 16 -9 13 4 20 1 19 -6 -1
-6 4 -10 12 -8 12 3 12 1 1 -15 -8 -10 -15 -20 -17 -22 -1 -1 -7 0 -13 4 -8 5
-7 11 2 23 11 13 10 15 -9 10 -16 -4 -24 -1 -28 12 -3 10 -15 20 -27 23 -16 5
-18 3 -9 -6 6 -6 11 -16 11 -21 0 -6 -4 -5 -9 2 -6 11 -11 10 -25 -3 -14 -15
-20 -13 -18 6 1 3 -6 6 -14 6 -8 0 -12 -3 -9 -5 3 -3 -1 -12 -8 -20 -6 -9 -7
-13 -1 -9 6 3 11 0 11 -8 0 -8 -4 -15 -9 -15 -4 0 -8 3 -8 8 0 4 -10 12 -22
17 -13 6 -23 15 -23 22 0 6 -4 15 -9 20 -5 5 -6 3 -2 -4 4 -7 2 -13 -3 -13 -6
0 -11 -5 -11 -11 0 -5 4 -8 9 -5 10 7 24 -22 16 -34 -3 -5 0 -12 6 -16 7 -4 9
-3 5 4 -3 6 -2 13 3 16 16 10 22 -11 7 -23 -10 -8 -16 -9 -21 -1 -3 6 -10 8
-15 5 -5 -3 -12 0 -16 6 -4 8 -9 7 -15 -2 -7 -12 -9 -12 -9 -1 0 8 9 16 20 19
16 4 18 8 9 19 -6 8 -18 14 -26 14 -9 0 -11 5 -7 13 5 7 2 7 -10 -2 -14 -12
-17 -12 -14 -1 2 8 -3 15 -9 16 -7 1 -16 3 -20 4 -5 1 -16 2 -25 1 -10 -1 -18
3 -18 8 0 6 5 11 11 11 5 0 8 4 4 10 -3 5 -12 7 -20 4 -8 -3 -20 -2 -27 2 -27
17 -36 12 -32 -16 6 -32 -8 -46 -25 -26 -8 10 -9 16 -1 21 5 3 10 11 10 16 0
6 -5 7 -11 3 -8 -4 -8 0 0 15 10 17 9 20 -4 15 -8 -4 -15 -11 -16 -18 -1 -6
-2 -19 -3 -28 0 -10 -5 -17 -11 -15 -5 1 -9 9 -8 17 1 7 -9 23 -23 35 -23 20
-34 42 -14 30 6 -3 10 -2 10 4 0 12 -66 34 -79 27 -5 -4 -12 -2 -16 4 -4 6
-11 8 -16 5 -5 -4 -9 2 -9 11 0 16 1 16 20 -1 11 -10 20 -14 20 -9 0 15 -38
35 -45 23 -5 -6 -12 -6 -22 3 -9 7 -28 11 -43 10 -28 -3 -29 -1 -20 38 0 3 7
-4 15 -14 8 -11 15 -15 15 -9 0 6 8 9 19 6 10 -3 22 1 26 8 6 9 2 11 -13 7
-12 -4 -25 -2 -28 3 -3 5 -9 7 -14 4 -5 -3 -11 -1 -15 5 -3 6 1 13 9 16 9 3
16 10 16 16 0 5 -4 7 -9 3 -5 -3 -12 -1 -16 5 -3 5 -11 10 -18 10 -6 0 -3 -6
8 -13 13 -10 15 -16 6 -21 -6 -4 -9 -12 -6 -17 4 -5 -1 -9 -9 -9 -9 0 -15 3
-15 8 3 19 -2 23 -16 12 -12 -10 -16 -9 -21 4 -8 22 -21 20 -27 -3 -5 -21 28
-37 39 -20 3 6 11 5 20 -2 10 -8 11 -15 4 -24 -21 -26 32 -44 67 -22 6 4 14 3
18 -3 7 -11 5 -12 -22 -14 -10 -1 -23 -5 -30 -9 -6 -4 -14 -3 -17 2 -3 5 -15
7 -25 4 -10 -3 -22 0 -26 6 -3 6 -3 10 2 9 4 -2 8 0 8 3 0 3 7 14 15 25 14 18
14 18 -5 2 -25 -21 -72 -30 -81 -16 -4 7 -2 8 4 4 7 -4 12 -1 12 6 0 10 2 10
9 -1 7 -10 10 -10 16 -1 5 8 1 16 -9 22 -9 5 -14 13 -11 19 4 5 -1 9 -9 9 -9
0 -16 9 -16 20 0 11 -6 20 -14 20 -22 0 -25 23 -8 43 15 17 15 18 -8 15 -14
-2 -31 -7 -37 -11 -9 -6 -13 0 -13 20 l-1 28 -13 -24 c-10 -18 -15 -20 -21
-11 -7 11 -10 9 -16 -6 -7 -17 -8 -17 -8 -1 -1 12 -5 16 -13 10 -7 -4 -18 -8
-25 -9 -16 -3 -63 45 -63 62 0 21 4 29 13 26 5 -1 6 2 3 7 -8 12 18 33 29 23
5 -4 5 -1 1 6 -6 9 -11 10 -20 3 -7 -6 -17 -7 -21 -3 -5 4 -5 2 -2 -4 3 -6 -7
-24 -24 -40 -29 -28 -30 -28 -35 -6 -4 13 -11 19 -18 15 -6 -3 -2 3 8 15 17
20 15 27 -6 23 -5 0 -8 7 -9 16 0 11 -3 13 -6 6 -2 -7 -9 -13 -14 -13 -6 0 -7
6 -3 13 6 8 3 8 -9 -2 -22 -18 -47 -7 -42 19 2 11 0 20 -6 20 -5 0 -9 -5 -9
-11 0 -8 -5 -7 -15 1 -13 11 -14 10 -9 -4 4 -10 13 -15 22 -11 12 4 13 3 2
-10 -7 -8 -17 -12 -23 -8 -5 3 -7 1 -3 -5 3 -6 2 -13 -4 -17 -5 -3 -10 1 -10
11 0 9 -8 23 -17 31 -10 8 -12 12 -5 8 7 -3 12 0 12 8 0 8 7 20 15 27 8 7 12
16 9 21 -8 14 -25 0 -18 -14 5 -9 4 -9 -6 0 -7 6 -19 9 -26 6 -8 -3 -14 0 -14
6 0 6 6 10 12 9 7 -2 13 4 13 12 0 8 -7 13 -15 11 -8 -2 -21 -4 -28 -5 -7 -1
-11 -6 -10 -12 2 -5 7 -8 12 -6 5 2 4 -4 -4 -12 -15 -19 -21 -20 -18 -3 2 6
-2 11 -8 10 -6 -1 -11 4 -11 12 0 8 3 12 7 10 4 -2 7 3 7 11 0 10 -4 11 -11 4
-16 -16 -46 -13 -40 4 3 8 12 12 20 9 8 -3 14 0 14 7 0 6 6 8 13 4 6 -4 9 -3
4 1 -11 13 -47 16 -47 5 0 -6 -7 -10 -16 -10 -13 0 -14 3 -5 14 9 10 8 16 -3
25 -20 16 -9 41 18 42 20 0 20 1 1 8 -13 5 -25 3 -34 -7 -16 -16 -25 -45 -11
-37 5 3 11 1 15 -5 8 -13 -18 -13 -32 1 -7 7 -14 6 -24 -3 -22 -20 -41 -21
-37 -1 2 11 12 18 28 18 15 0 25 6 26 15 1 25 -7 32 -22 19 -8 -6 -14 -8 -14
-4 0 4 -7 1 -16 -6 -23 -19 -44 -20 -44 -2 0 12 3 13 13 4 17 -14 30 -2 16 15
-8 9 -6 11 9 8 11 -3 24 2 32 13 10 12 10 14 1 7 -10 -9 -19 -8 -39 2 -36 18
-41 18 -35 -5 6 -24 -27 -38 -39 -17 -5 9 -16 13 -26 10 -13 -5 -14 -4 -4 4 8
5 13 12 13 16 -1 3 2 5 7 4 4 -2 6 -7 4 -11 -1 -5 3 -5 9 -1 7 4 9 3 5 -4 -3
-6 -2 -13 4 -17 5 -3 10 2 10 12 0 10 -9 24 -20 31 -12 7 -18 17 -14 23 4 7
11 6 20 -2 8 -7 14 -7 14 -1 0 10 -23 22 -40 22 -5 0 -7 -9 -5 -21 3 -17 2
-19 -10 -9 -8 7 -12 17 -8 24 4 6 -1 5 -10 -3 -10 -8 -24 -10 -34 -6 -10 5
-21 7 -26 7 -4 -1 -6 4 -5 10 2 7 -2 12 -8 11 -6 -1 -11 5 -11 12 0 10 4 12
12 5 9 -8 14 -6 19 5 4 10 -1 15 -15 15 -11 0 -18 4 -15 9 3 5 -4 11 -15 14
-12 3 -18 10 -14 16 3 6 11 8 17 5 6 -4 8 -2 5 4 -5 7 -21 4 -48 -10 -23 -10
-43 -17 -46 -15 -2 3 5 8 16 12 14 4 20 14 19 30 -2 18 -5 21 -15 13 -7 -6
-13 -17 -13 -25 0 -12 -22 -14 -69 -4 -3 1 4 8 15 16 18 14 18 14 -8 15 -36 0
-44 -3 -40 -15 2 -5 -5 -2 -15 6 -10 9 -30 16 -44 15 -14 -1 -26 4 -26 11 0 6
5 11 11 10 6 -1 10 3 9 9 -2 11 156 -6 252 -27 28 -6 62 -9 78 -7 l27 3 -25
48 c-14 26 -23 53 -19 60 4 7 4 9 -1 5 -9 -9 -79 91 -70 100 3 3 5 -1 5 -8 0
-17 13 -4 16 16 1 9 -3 13 -10 11 -19 -7 -38 27 -23 42 9 9 8 11 -5 6 -21 -8
-22 -17 -6 -33 7 -7 9 -12 6 -12 -4 0 -21 18 -38 40 -26 33 -30 43 -20 55 7 9
10 18 6 22 -3 3 -6 1 -6 -5 0 -7 -6 -12 -12 -12 -16 0 -164 149 -160 161 1 5
-1 8 -5 7 -11 -3 -53 25 -53 35 0 4 6 5 13 1 8 -5 7 -2 -2 10 -9 10 -17 13
-21 7 -3 -7 -12 -4 -22 7 -8 9 -41 34 -72 55 -31 21 -54 43 -50 48 3 6 0 9 -7
8 -22 -4 -70 23 -65 37 2 6 -1 18 -7 25 -10 11 -9 11 5 0 10 -7 15 -17 13 -22
-7 -10 34 -33 43 -25 3 4 -3 13 -14 21 -18 14 -18 14 9 15 19 0 27 -5 28 -17
0 -12 2 -13 6 -5 6 16 -42 66 -55 58 -6 -3 -13 1 -16 10 -3 8 -2 13 2 10 5 -3
9 1 9 9 0 7 -8 12 -19 10 -10 -2 -18 0 -18 6 0 5 -10 9 -22 10 -22 0 -22 1 -3
8 11 5 25 5 31 0 23 -19 9 22 -15 43 -14 13 -23 19 -19 14 8 -10 -9 -36 -23
-36 -5 0 -9 5 -9 11 0 5 6 7 13 3 8 -5 8 -3 -2 9 -7 9 -17 14 -22 12 -4 -3 -6
3 -4 15 2 11 0 22 -6 25 -5 4 -9 1 -9 -4 0 -6 -4 -11 -9 -11 -5 0 -7 9 -4 20
3 11 9 17 14 14 5 -3 9 0 9 5 0 6 -4 12 -10 12 -5 1 -16 2 -22 3 -7 1 -17 -7
-23 -18 -5 -11 -18 -20 -28 -22 -9 -1 -15 2 -11 7 3 5 -2 9 -10 9 -9 0 -16 5
-16 10 0 7 6 7 19 0 13 -7 22 -7 26 0 3 5 -1 10 -10 10 -10 0 -13 5 -9 12 5 8
0 9 -14 6 -12 -4 -25 -2 -28 4 -4 6 -10 5 -15 -3 -6 -10 -9 -8 -9 9 0 12 -6
22 -12 22 -10 0 -10 2 0 8 10 7 8 12 -5 24 -14 12 -22 12 -40 3 -15 -8 -19
-15 -12 -22 6 -6 5 -10 -5 -10 -8 0 -13 4 -11 8 3 3 -2 12 -10 19 -8 7 -13 16
-10 20 2 4 -8 13 -23 19 -31 15 -37 15 -37 2 0 -5 -2 -12 -5 -15 -4 -3 -6 5
-6 18 0 18 5 23 18 21 10 -2 21 2 24 8 4 7 4 9 0 5 -4 -3 -19 0 -34 8 -17 9
-30 10 -36 4 -16 -16 -37 -11 -35 8 3 31 -1 35 -18 21 -11 -10 -14 -10 -9 -1
5 8 0 12 -14 12 -12 0 -20 5 -18 12 5 15 -22 49 -34 42 -4 -3 -8 0 -8 5 0 6 5
11 11 11 8 0 8 5 -1 15 -9 11 -16 12 -25 5 -10 -8 -15 -7 -21 2 -4 7 -4 10 1
6 4 -4 14 -3 21 3 9 7 19 7 33 -1 13 -6 21 -7 21 -1 0 5 -9 13 -20 16 -11 3
-20 10 -20 15 0 9 -37 20 -44 12 -3 -3 -1 -10 4 -17 7 -9 -4 -9 -48 -1 -41 8
-49 12 -29 14 15 2 25 7 22 12 -3 4 -13 6 -23 4 -14 -4 -17 2 -19 31 -1 20 2
33 8 30 5 -4 9 -13 9 -21 0 -8 5 -14 11 -14 6 0 9 6 6 14 -3 7 0 20 6 27 10
11 9 11 -4 1 -21 -16 -31 -4 -18 20 6 11 8 22 6 25 -3 2 -8 -5 -12 -16 -3 -12
-11 -19 -16 -15 -5 3 -7 10 -3 15 3 5 0 8 -7 7 -7 -2 -18 8 -26 22 -8 16 -13
19 -13 9 0 -9 -7 -16 -15 -16 -10 0 -12 4 -5 12 7 9 4 12 -13 11 -12 -1 -27
-5 -34 -9 -6 -4 -14 -3 -18 3 -4 6 -12 7 -18 3 -6 -4 -2 6 11 21 12 16 22 37
22 47 0 11 7 19 16 19 13 0 14 3 4 15 -6 8 -17 13 -23 12 -6 -1 -11 5 -12 13
0 8 -9 15 -20 15 -11 -1 -23 4 -27 10 -5 6 -8 6 -8 -2 0 -6 5 -15 10 -18 6 -4
8 -10 5 -15 -3 -5 -1 -12 5 -15 6 -4 9 -3 8 2 -2 4 2 8 7 8 6 0 9 -4 7 -8 -2
-6 -6 -28 -11 -57 -1 -6 -26 35 -39 65 -5 11 -13 18 -18 16 -5 -2 -16 9 -24
25 -17 29 -70 44 -70 19 0 -14 24 -37 31 -30 3 2 6 -7 7 -21 1 -15 -2 -23 -8
-19 -6 4 -8 10 -5 15 3 4 -2 13 -10 20 -8 7 -15 9 -15 5 0 -4 -7 -2 -15 5 -17
14 -21 35 -5 25 9 -6 14 7 11 27 0 4 5 5 13 2 7 -3 16 2 20 12 5 13 4 14 -7 6
-10 -8 -17 -8 -24 -1 -8 8 -13 7 -18 -2 -6 -8 -4 -10 5 -4 9 5 11 4 6 -3 -5
-9 -13 -8 -30 3 -13 9 -29 13 -37 11 -28 -10 -145 -15 -121 -6 40 16 243 28
412 25 388 -8 759 -103 1095 -280 50 -27 101 -56 115 -65 50 -33 100 -62 100
-56 0 11 -191 123 -295 172 -227 107 -416 168 -654 210 -114 21 -177 25 -386
28 -137 2 -268 2 -290 0z m181 -150 c-11 -8 -13 -13 -5 -16 8 -3 7 -7 -3 -15
-11 -10 -14 -8 -15 10 -2 25 15 49 30 40 6 -4 4 -11 -7 -19z m124 1 c0 -2 -7
-8 -15 -15 -12 -10 -15 -10 -15 2 0 8 7 15 15 15 8 0 15 -1 15 -2z m-160 -21
c0 -8 -19 -13 -24 -6 -3 5 1 9 9 9 8 0 15 -2 15 -3z m80 -6 c0 -4 -4 -8 -9 -8
-6 0 -12 4 -15 8 -3 5 1 9 9 9 8 0 15 -4 15 -9z m165 -123 c0 -6 3 -15 7 -21
4 -6 1 -11 -7 -11 -8 0 -14 3 -13 6 2 20 -5 22 -24 5 -23 -19 -23 -19 -5 2 9
11 14 24 10 28 -5 5 1 6 12 4 11 -2 20 -8 20 -13z m385 -353 c0 -5 -7 -9 -15
-9 -8 0 -12 4 -9 9 3 4 9 8 15 8 5 0 9 -4 9 -8z m94 -37 c-4 -8 -11 -15 -16
-15 -6 0 -5 6 2 15 7 8 14 15 16 15 2 0 1 -7 -2 -15z m13 -41 c-3 -3 -12 -4
-19 -1 -8 3 -5 6 6 6 11 1 17 -2 13 -5z m-493 -54 c220 -18 397 -64 593 -156
238 -110 485 -312 643 -525 68 -91 154 -228 148 -234 -2 -2 -53 5 -113 16
-263 47 -442 61 -890 68 -236 4 -603 6 -815 6 -331 -1 -393 -3 -443 -18 -208
-61 -336 -199 -372 -402 -12 -67 -14 -326 -15 -1548 0 -1623 -4 -1520 63
-1532 17 -3 320 -5 672 -3 618 4 643 5 717 25 259 73 459 273 530 531 20 72
22 109 27 572 l6 495 69 -3 c129 -6 284 -59 393 -133 305 -209 421 -621 304
-1074 -55 -212 -151 -376 -310 -536 -238 -238 -539 -363 -956 -399 -149 -12
-667 -13 -837 0 -313 23 -509 125 -657 343 -18 26 -41 67 -52 91 l-19 44 -388
5 c-374 4 -390 5 -492 30 -260 64 -439 158 -611 325 -361 346 -481 870 -315
1366 60 178 171 350 326 507 211 214 448 329 739 358 57 6 125 11 152 11 l49
0 0 68 c0 675 358 1252 955 1542 189 92 385 144 600 160 151 11 163 11 299 0z
m736 -76 c0 -8 -5 -12 -10 -9 -6 4 -8 11 -5 16 9 14 15 11 15 -7z m-205 -24
c3 -5 -4 -6 -15 -3 -11 3 -22 9 -25 13 -3 5 4 6 15 3 11 -3 22 -9 25 -13z
m100 -40 c3 0 3 5 -1 12 -5 7 -3 8 7 2 8 -5 19 -9 24 -9 6 -1 9 -7 7 -14 -2
-9 4 -12 17 -8 14 3 18 1 14 -9 -6 -16 -19 -18 -28 -5 -3 5 -18 12 -34 16 -16
3 -36 13 -43 22 -12 15 -11 15 9 5 12 -7 24 -12 28 -12z m272 -736 c-3 -3 -12
-4 -19 -1 -8 3 -5 6 6 6 11 1 17 -2 13 -5z m83 -4 c13 -9 13 -10 0 -9 -8 1
-26 5 -40 9 l-25 8 25 1 c14 0 32 -4 40 -9z m280 -116 c0 -8 -19 -13 -24 -6
-3 5 1 9 9 9 8 0 15 -2 15 -3z m120 -97 c0 -2 -10 -12 -22 -23 l-23 -19 19 23
c18 21 26 27 26 19z m6 -56 c0 -15 -3 -17 -13 -9 -7 6 -10 14 -7 19 9 15 20
10 20 -10z m244 -121 c0 -5 -5 -10 -11 -10 -5 0 -7 5 -4 10 3 6 8 10 11 10 2
0 4 -4 4 -10z m269 -144 c9 -10 7 -17 -6 -27 -16 -12 -17 -12 -6 2 10 12 10
18 1 27 -7 7 -9 12 -6 12 3 0 11 -6 17 -14z m-49 -6 c0 -5 -2 -10 -4 -10 -3 0
-8 5 -11 10 -3 6 -1 10 4 10 6 0 11 -4 11 -10z m292 -162 c-5 -20 -15 -17 -18
6 -1 7 4 13 11 13 7 0 10 -8 7 -19z m48 18 c0 -2 -8 -10 -17 -17 -16 -13 -17
-12 -4 4 13 16 21 21 21 13z m280 -192 c-3 -5 -8 -8 -12 -6 -5 1 -8 -2 -8 -8
0 -5 -5 -10 -11 -10 -8 0 -9 4 0 13 6 8 8 16 5 20 -3 3 2 4 13 3 10 -2 16 -7
13 -12z m73 -14 c-10 -10 -22 -15 -27 -12 -5 3 -6 0 -2 -7 6 -8 12 -9 20 -2 9
8 13 7 13 -3 0 -8 -9 -17 -20 -20 -10 -2 -16 -2 -13 1 10 10 -15 33 -28 26
-12 -7 13 28 28 38 4 4 17 4 28 2 18 -5 18 -6 1 -23z m171 -56 c9 -3 16 -10
16 -14 0 -10 -38 -1 -46 11 -6 10 7 12 30 3z m69 -43 c5 -1 6 -5 2 -10 -8 -14
-45 -9 -45 5 0 7 8 11 18 9 9 -2 21 -4 25 -4z m501 -103 c19 -33 19 -33 -1
-15 -11 9 -27 17 -36 17 -15 0 -21 11 -18 32 0 4 -4 20 -9 35 l-10 28 28 -32
c15 -17 36 -46 46 -65z m-229 53 c-3 -3 -10 1 -15 9 -9 13 -14 7 -11 -12 0 -3
-7 -5 -17 -3 -9 1 -27 -7 -39 -18 -13 -11 -26 -18 -29 -15 -3 4 4 11 15 17 12
7 18 17 15 26 -7 17 7 20 22 5 8 -8 15 -6 24 5 10 12 16 13 27 4 7 -7 11 -14
8 -18z m25 -24 c0 -15 -46 -21 -55 -8 -3 5 4 7 15 4 11 -3 20 0 20 6 0 6 5 11
10 11 6 0 10 -6 10 -13z m190 -57 c0 -5 -2 -10 -4 -10 -3 0 -8 5 -11 10 -3 6
-1 10 4 10 6 0 11 -4 11 -10z m71 -65 c9 -18 9 -19 -4 -3 -8 10 -17 15 -20 11
-4 -3 -7 -1 -7 5 0 5 -3 19 -6 29 -5 16 -4 16 11 -2 9 -11 21 -29 26 -40z m63
-111 c3 -8 2 -12 -4 -9 -6 3 -10 10 -10 16 0 14 7 11 14 -7z"/>
<path d="M4081 6404 c0 -11 3 -14 6 -6 3 7 2 16 -1 19 -3 4 -6 -2 -5 -13z"/>
<path d="M4134 6395 c36 -19 45 -19 20 0 -10 8 -26 14 -34 15 -8 0 -2 -7 14
-15z"/>
<path d="M4015 6360 c3 -5 8 -10 11 -10 2 0 4 5 4 10 0 6 -5 10 -11 10 -5 0
-7 -4 -4 -10z"/>
<path d="M4126 6348 c3 -5 10 -6 15 -3 13 9 11 12 -6 12 -8 0 -12 -4 -9 -9z"/>
<path d="M4324 6126 c1 -9 12 -27 25 -42 19 -22 24 -24 38 -12 9 7 17 11 19 8
1 -3 6 -1 11 4 4 5 3 6 -4 2 -6 -3 -14 -2 -18 4 -4 6 -10 8 -15 5 -5 -3 -11
-1 -15 5 -4 6 -10 8 -15 5 -5 -3 -12 -1 -15 5 -4 6 -3 9 2 8 4 -2 9 2 11 7 2
6 -4 11 -12 13 -8 2 -13 -3 -12 -12z"/>
<path d="M4426 6105 c4 -8 11 -15 16 -15 6 0 5 6 -2 15 -7 8 -14 15 -16 15 -2
0 -1 -7 2 -15z"/>
<path d="M4405 6030 c-3 -5 -1 -10 4 -10 6 0 11 5 11 10 0 6 -2 10 -4 10 -3 0
-8 -4 -11 -10z"/>
<path d="M4515 5993 c2 -10 4 -20 4 -22 1 -2 7 2 15 8 11 9 16 9 22 0 4 -7 3
-9 -3 -6 -6 4 -13 -2 -16 -13 -4 -16 -2 -17 14 -7 11 7 17 17 15 23 -2 6 1 17
7 23 8 8 8 11 -1 11 -7 0 -12 -5 -12 -10 0 -7 -6 -7 -19 0 -27 14 -30 13 -26
-7z"/>
<path d="M4677 5932 c-14 -15 -14 -19 -3 -19 8 0 14 5 13 11 -1 6 4 10 11 8 8
-1 11 2 7 8 -8 13 -9 13 -28 -8z"/>
<path d="M4645 5890 c3 -5 10 -10 16 -10 5 0 9 5 9 10 0 6 -7 10 -16 10 -8 0
-12 -4 -9 -10z"/>
<path d="M4909 5723 c-13 -16 -12 -17 4 -4 9 7 17 15 17 17 0 8 -8 3 -21 -13z"/>
<path d="M4939 5676 c29 -30 28 -30 28 -11 0 8 -4 12 -9 9 -4 -3 -8 -1 -8 4 0
6 -8 13 -17 16 -13 5 -11 0 6 -18z"/>
<path d="M4986 5608 c3 -5 10 -6 15 -3 13 9 11 12 -6 12 -8 0 -12 -4 -9 -9z"/>
<path d="M5003 5581 c-9 -11 -21 -17 -27 -14 -6 4 -5 -1 3 -10 10 -13 17 -15
27 -6 8 6 11 15 9 20 -3 4 3 6 13 4 11 -2 19 3 19 11 0 20 -24 17 -44 -5z"/>
<path d="M5095 5550 c-3 -5 -15 -7 -27 -5 -11 3 -18 2 -14 -2 3 -3 0 -13 -7
-21 -9 -13 -9 -14 1 -8 6 4 12 3 12 -2 0 -6 7 -12 15 -16 9 -3 15 0 15 10 0 8
-4 13 -9 9 -5 -3 -13 -1 -16 5 -4 6 -3 10 2 9 4 -1 10 -1 13 1 3 1 16 4 29 6
33 6 36 10 11 17 -11 3 -22 1 -25 -3z"/>
<path d="M5220 5399 c0 -5 -4 -7 -10 -4 -5 3 -10 1 -10 -4 0 -16 16 -13 30 4
9 10 9 15 1 15 -6 0 -11 -5 -11 -11z"/>
<path d="M5280 5362 c0 -5 7 -9 15 -9 8 0 12 4 9 9 -3 4 -9 8 -15 8 -5 0 -9
-4 -9 -8z"/>
<path d="M5280 5310 c0 -5 5 -10 11 -10 5 0 7 5 4 10 -3 6 -8 10 -11 10 -2 0
-4 -4 -4 -10z"/>
<path d="M5370 5210 c-24 -15 -7 -18 20 -3 14 7 18 13 10 13 -8 0 -22 -4 -30
-10z"/>
<path d="M5533 4828 c1 -17 -3 -23 -20 -24 -35 -2 -36 -3 -23 -19 10 -12 8
-13 -10 -10 -18 3 -20 2 -10 -10 13 -16 40 -9 40 10 0 14 28 29 48 26 6 -1 12
3 12 9 0 6 -4 8 -10 5 -5 -3 -10 1 -10 9 0 8 -4 18 -10 21 -6 4 -9 -4 -7 -17z"/>
<path d="M5606 4728 c3 -5 10 -6 15 -3 13 9 11 12 -6 12 -8 0 -12 -4 -9 -9z"/>
<path d="M5680 4725 c0 -8 4 -15 10 -15 5 0 7 7 4 15 -4 8 -8 15 -10 15 -2 0
-4 -7 -4 -15z"/>
<path d="M5646 4722 c-3 -5 1 -9 9 -9 8 0 12 4 9 9 -3 4 -7 8 -9 8 -2 0 -6 -4
-9 -8z"/>
<path d="M5771 4623 c7 -12 15 -20 18 -17 3 2 -3 12 -13 22 -17 16 -18 16 -5
-5z"/>
<path d="M5845 4630 c3 -5 8 -10 11 -10 2 0 4 5 4 10 0 6 -5 10 -11 10 -5 0
-7 -4 -4 -10z"/>
<path d="M5958 4498 c5 -5 16 -8 23 -6 8 3 3 7 -10 11 -17 4 -21 3 -13 -5z"/>
<path d="M6174 4375 c3 -21 16 -31 16 -12 0 9 -4 18 -9 21 -5 4 -8 -1 -7 -9z"/>
<path d="M6273 4363 c4 -3 1 -13 -6 -22 -11 -14 -10 -14 6 -2 20 15 22 31 5
31 -6 0 -8 -3 -5 -7z"/>
<path d="M6146 4341 c-6 -9 34 -48 49 -47 18 2 35 17 29 27 -3 5 -10 7 -15 3
-5 -3 -6 -10 -3 -16 4 -7 2 -8 -5 -4 -6 4 -9 11 -6 16 3 5 1 12 -5 15 -6 4
-10 3 -9 -2 3 -20 -2 -25 -16 -13 -8 7 -12 16 -9 21 3 5 3 9 0 9 -3 0 -7 -4
-10 -9z"/>
<path d="M6350 4256 c0 -9 6 -16 13 -17 6 0 20 -2 30 -4 15 -3 16 -1 6 11 -6
8 -14 12 -17 9 -3 -3 -11 0 -19 6 -10 9 -13 8 -13 -5z"/>
<path d="M6606 4182 c-3 -5 1 -9 9 -9 8 0 12 4 9 9 -3 4 -7 8 -9 8 -2 0 -6 -4
-9 -8z"/>
<path d="M6740 4101 c0 -6 4 -12 8 -15 5 -3 9 1 9 9 0 8 -4 15 -9 15 -4 0 -8
-4 -8 -9z"/>
<path d="M6726 4041 c-3 -5 0 -14 8 -20 11 -9 15 -7 19 9 5 20 -16 29 -27 11z"/>
<path d="M6980 4019 c0 -5 -4 -8 -9 -5 -5 3 -14 -1 -20 -8 -10 -12 -8 -13 11
-8 20 5 21 3 10 -10 -10 -13 -10 -17 4 -22 23 -9 26 -8 17 7 -4 6 -6 22 -4 35
1 12 0 22 -3 22 -3 0 -6 -5 -6 -11z"/>
<path d="M7044 3970 c1 -43 11 -52 21 -20 3 11 0 29 -8 40 -13 19 -14 17 -13
-20z"/>
<path d="M7205 4000 c-3 -5 1 -10 10 -10 9 0 13 5 10 10 -3 6 -8 10 -10 10 -2
0 -7 -4 -10 -10z"/>
</g>
</svg>
