<?xml version="1.0" encoding="UTF-8"?>
<svg xmlns="http://www.w3.org/2000/svg" width="512" height="512" viewBox="0 0 512 512">
  <g transform="translate(0,512) scale(0.05,-0.05)" fill="#2B6CB0" stroke="none">
    <path d="M4890 7504 c-285 -36 -586 -144 -800 -287 -373 -248 -644 -624 -731
    -1011 -7 -32 -17 -59 -23 -61 -6 -1 -59 -10 -118 -19 -917 -144 -1502 -1106
    -1212 -1994 76 -232 193 -422 374 -603 217 -218 459 -351 743 -410 192 -39
    311 -26 411 45 43 31 332 321 1380 1389 247 252 452 456 456 455 5 -2 62 -52
    127 -112 65 -60 134 -116 153 -124 52 -21 130 -12 174 22 71 54 69 40 70 541
    1 503 3 485 -71 542 l-36 28 -456 3 c-251 2 -471 0 -489 -3 -40 -7 -101 -59
    -118 -102 -20 -47 -17 -127 5 -171 21 -42 49 -71 162 -170 l77 -67 -141 -145
    c-506 -521 -1509 -1525 -1542 -1545 -58 -34 -104 -40 -171 -20 -235 68 -463
    285 -563 535 -105 263 -90 575 39 835 135 273 370 455 665 516 131 27 393 24
    531 -6 20 -4 21 0 27 123 19 362 131 643 348 876 129 138 330 268 504 325 264
    87 586 85 837 -5 503 -180 838 -656 838 -1189 0 -134 3 -147 34 -135 89 34
    426 37 554 6 234 -58 448 -207 575 -399 55 -83 114 -213 138 -304 26 -101 36
    -292 20 -402 -61 -413 -383 -748 -781 -811 -42 -6 -484 -10 -1245 -10 l-1179
    0 -109 -107 c-60 -60 -181 -183 -269 -276 l-161 -168 1494 4 c1475 3 1495 3
    1589 24 142 31 252 71 377 134 148 75 255 152 379 274 238 234 380 505 441
    840 25 139 23 390 -5 533 -88 444 -353 820 -736 1044 -159 93 -408 177 -573
    193 -40 4 -73 9 -73 11 0 17 -76 247 -102 309 -74 175 -217 383 -366 534 -249
    250 -558 416 -917 491 -77 16 -146 22 -300 25 -110 2 -216 1 -235 -1z"/>
  </g>
</svg> 