<?xml version="1.0" encoding="UTF-8"?>
<svg width="32" height="32" viewBox="0 0 32 32" xmlns="http://www.w3.org/2000/svg">
  <path d="M16 4C9.373 4 4 9.373 4 16s5.373 12 12 12 12-5.373 12-12S22.627 4 16 4zm0 22c-5.514 0-10-4.486-10-10S10.486 6 16 6s10 4.486 10 10-4.486 10-10 10z" fill="#2B6CB0"/>
  <path d="M16 8c-4.411 0-8 3.589-8 8s3.589 8 8 8 8-3.589 8-8-3.589-8-8-8zm0 14c-3.309 0-6-2.691-6-6s2.691-6 6-6 6 2.691 6 6-2.691 6-6 6z" fill="#4299E1"/>
  <path d="M20 14h-4v-4c0-.552-.448-1-1-1s-1 .448-1 1v4h-4c-.552 0-1 .448-1 1s.448 1 1 1h4v4c0 .552.448 1 1 1s1-.448 1-1v-4h4c.552 0 1-.448 1-1s-.448-1-1-1z" fill="#2B6CB0"/>
</svg> 