<?xml version="1.0" standalone="no"?>
<svg xmlns="http://www.w3.org/2000/svg" viewBox="0 0 1024 1024" width="32" height="32">
  <g transform="translate(0,1024) scale(0.1,-0.1)" fill="#2B6CB0">
    <path d="M4924 9100 c-773 -56 -1455 -446 -1873 -1071 -167 -249 -261 -456 -336 -743 -19 -71 -38 -132 -42 -136 -4 -4 -44 -19 -88 -34 -112 -38 -324 -143 -424 -211 -470 -315 -778 -815 -867 -1400 -19 -132 -22 -428 -5 -560 113 -859 717 -1554 1530 -1760 218 -55 248 -57 846 -65 l560 -6 88 -27 c148 -46 261 -111 367 -213 l45 -43 325 -1 c527 -1 746 19 1005 92 737 206 1214 738 1342 1494 26 156 26 589 0 719 -107 531 -462 858 -1028 945 -41 6 -235 14 -431 17 l-358 6 0 -777 0 -776 -315 0 -315 0 0 1080 0 1080 553 0 c549 0 713 -6 942 -36 456 -58 844 -206 1110 -424 270 -222 438 -494 502 -817 26 -133 24 -385 -5 -528 -48 -243 -149 -471 -294 -666 -71 -97 -208 -240 -296 -312 -55 -45 -71 -66 -118 -159 -100 -195 -251 -405 -410 -569 -35 -37 -64 -70 -64 -74 0 -16 343 4 445 25 288 61 599 210 829 399 83 69 235 222 301 304 185 229 346 562 413 852 69 297 73 614 12 915 -102 500 -383 945 -794 1254 -127 96 -388 243 -502 283 -26 9 -31 19 -53 104 -126 490 -405 930 -805 1265 -485 407 -1152 621 -1792 574z"/>
  </g>
</svg> 