<?xml version="1.0" encoding="UTF-8"?>
<svg width="1000" height="1000" viewBox="0 0 1000 1000" xmlns="http://www.w3.org/2000/svg">
  <path d="M500 150C310.7 150 150 310.7 150 500s160.7 350 350 350 350-160.7 350-350S689.3 150 500 150zm0 650c-165.7 0-300-134.3-300-300s134.3-300 300-300 300 134.3 300 300-134.3 300-300 300z" fill="#2B6CB0"/>
  <path d="M500 250c-138.1 0-250 111.9-250 250s111.9 250 250 250 250-111.9 250-250S638.1 250 500 250zm0 450c-110.5 0-200-89.5-200-200s89.5-200 200-200 200 89.5 200 200-89.5 200-200 200z" fill="#4299E1"/>
  <path d="M650 450H500V300c0-27.6-22.4-50-50-50s-50 22.4-50 50v150H250c-27.6 0-50 22.4-50 50s22.4 50 50 50h150v150c0 27.6 22.4 50 50 50s50-22.4 50-50V550h150c27.6 0 50-22.4 50-50s-22.4-50-50-50z" fill="#2B6CB0"/>
</svg> 